<svg width="151" height="71" viewBox="0 0 151 71" fill="none" xmlns="http://www.w3.org/2000/svg">
    <path d="M34.5991 0.546979C32.5721 1.84471 30.5772 3.38912 29.2473 4.67613C26.9629 6.91767 25.3541 9.19139 24.5926 11.2399C24.3352 11.9585 24.0242 13.3098 23.9706 13.9962C23.8848 15.0473 23.8848 15.2511 23.9384 15.8838C24.1529 18.0074 25.2361 20.4205 27.0272 22.7586C27.9603 23.9813 30.2876 26.1156 32.4434 27.7136C33.666 28.6252 35.4357 29.8908 35.5 29.8908C35.5644 29.8908 37.334 28.636 38.5567 27.7136C40.0153 26.6304 41.9136 24.9894 42.8038 24.0671C45.2384 21.5145 46.7828 18.5437 47.0509 15.8946C47.1153 15.2511 47.1153 15.0687 47.0295 14.007C46.9759 13.2669 46.6541 11.9263 46.3645 11.1755C45.1526 8.02236 42.2568 4.67613 38.3207 1.84471C37.2268 1.07251 35.5965 0 35.5 0C35.4678 0 35.0603 0.246677 34.5991 0.546979Z" fill="url(#paint0_linear_1_5)"/>
    <path d="M14.2107 23.9491C13.3956 24.0134 12.0335 24.3137 11.2721 24.5926C8.12961 25.7616 4.70831 28.7003 1.85544 32.6793C1.07251 33.7733 0 35.4035 0 35.5C0 35.5965 1.07251 37.2267 1.84471 38.3207C3.19607 40.2083 4.30075 41.4631 5.93097 42.9432C8.27976 45.0989 10.3711 46.3001 12.6556 46.8042C13.4171 46.9758 13.8032 47.0187 14.8757 47.0938C16.5595 47.2118 19.0692 46.4074 21.1498 45.0882C23.8097 43.4044 25.7724 41.3023 29.1186 36.6369C29.5476 36.0363 29.9015 35.5322 29.9015 35.5C29.9015 35.4678 29.5476 34.9637 29.1186 34.3631C26.0941 30.1267 24.0563 27.8745 21.8899 26.3944C20.6994 25.5793 20.0344 25.2147 18.7796 24.6998C17.1279 24.0242 15.8731 23.8097 14.2107 23.9491Z" fill="url(#paint1_linear_1_5)"/>
    <path d="M55.0518 23.9384C54.2153 24.0242 53.3144 24.2601 52.3705 24.6355C51.0943 25.1503 50.6653 25.3755 49.3139 26.2443C47.1582 27.6385 44.9702 30.0302 41.8707 34.3631C41.4417 34.9637 41.0878 35.4678 41.0878 35.5C41.0878 35.5536 42.3426 37.334 43.265 38.5566C44.863 40.7124 46.9973 43.0397 48.2199 43.9728C50.5687 45.7746 52.939 46.8364 55.0947 47.0616C55.7382 47.126 55.9205 47.126 56.9823 47.0402C58.2157 46.9437 59.7279 46.4825 61.09 45.8068C63.7498 44.4769 66.71 41.7313 69.1338 38.3314C69.9275 37.2267 71 35.5965 71 35.5C71 35.264 68.7048 31.9929 67.6967 30.781C66.0772 28.8397 64.0716 27.0165 62.2912 25.8689C60.1033 24.4532 57.2934 23.7131 55.0518 23.9384Z" fill="url(#paint2_linear_1_5)"/>
    <path d="M34.3631 41.8814C30.0302 44.981 27.6385 47.1689 26.2443 49.3246C25.3755 50.6653 25.1503 51.0943 24.6355 52.3813C24.1207 53.6683 23.8311 55.1269 23.8955 56.1243C23.9705 57.1861 24.0242 57.5829 24.185 58.3444C24.9894 61.9588 28.0354 65.8412 32.6686 69.1553C33.7733 69.9275 35.4035 71 35.5 71C35.5965 71 37.2267 69.9275 38.3207 69.1553C41.7205 66.7207 44.4447 63.782 45.7961 61.09C46.4718 59.7494 46.9222 58.2264 47.0295 56.9931C47.1153 55.9206 47.1153 55.7382 47.0509 55.1054C46.8364 52.9497 45.7746 50.5795 43.9621 48.2307C43.029 47.008 40.7017 44.8737 38.5459 43.2757C37.3233 42.3641 35.5536 41.0985 35.4893 41.0985C35.4678 41.0985 34.9637 41.4524 34.3631 41.8814Z" fill="url(#paint3_linear_1_5)"/>
    <path d="M109.485 39.915L106.885 52.195C105.805 52.715 104.688 53.225 103.535 53.725C102.388 54.2183 101.165 54.6517 99.865 55.025C98.565 55.3917 97.145 55.685 95.605 55.905C94.065 56.1183 92.3883 56.225 90.575 56.225C84.7617 56.225 80.285 54.925 77.145 52.325C74.005 49.725 72.435 45.3917 72.435 39.325C72.435 35.8183 72.975 32.515 74.055 29.415C75.1417 26.315 76.745 23.605 78.865 21.285C80.9917 18.965 83.615 17.135 86.735 15.795C89.855 14.4483 93.4283 13.775 97.455 13.775C99.3683 13.775 101.115 13.905 102.695 14.165C104.275 14.425 105.705 14.7617 106.985 15.175C108.265 15.5883 109.412 16.0317 110.425 16.505C111.445 16.985 112.368 17.4417 113.195 17.875L110.855 29.965H99.155C99.195 29.5317 99.2483 28.9683 99.315 28.275C99.3817 27.5817 99.435 26.8783 99.475 26.165C99.5217 25.445 99.565 24.7383 99.605 24.045C99.6517 23.3517 99.675 22.7683 99.675 22.295C99.675 21.9483 99.6517 21.5483 99.605 21.095C99.565 20.635 99.455 20.1883 99.275 19.755C99.1083 19.3283 98.8383 18.9717 98.465 18.685C98.0983 18.405 97.6117 18.265 97.005 18.265C95.8783 18.265 94.8483 18.7317 93.915 19.665C92.9883 20.5917 92.155 21.825 91.415 23.365C90.6817 24.905 90.0317 26.6483 89.465 28.595C88.8983 30.5483 88.4317 32.5317 88.065 34.545C87.6983 36.5583 87.4183 38.5417 87.225 40.495C87.0317 42.4417 86.935 44.1517 86.935 45.625C86.935 46.0583 86.955 46.6017 86.995 47.255C87.0417 47.9017 87.1717 48.5283 87.385 49.135C87.5983 49.7417 87.935 50.265 88.395 50.705C88.8483 51.1317 89.465 51.345 90.245 51.345C91.5917 51.345 92.8917 50.5117 94.145 48.845C95.3983 47.1783 96.5017 44.2017 97.455 39.915H109.485ZM148.165 26.385H137.375C137.502 25.7383 137.565 24.8517 137.565 23.725C137.565 23.0783 137.522 22.4383 137.435 21.805C137.348 21.1783 137.198 20.615 136.985 20.115C136.765 19.615 136.438 19.225 136.005 18.945C135.572 18.665 135.008 18.525 134.315 18.525C133.535 18.525 132.822 18.6983 132.175 19.045C131.522 19.3917 130.945 19.835 130.445 20.375C129.952 20.915 129.562 21.545 129.275 22.265C128.995 22.9783 128.855 23.725 128.855 24.505C128.855 25.6317 129.148 26.4983 129.735 27.105C130.322 27.7117 131.092 28.2083 132.045 28.595C132.998 28.9883 134.078 29.315 135.285 29.575C136.505 29.835 137.765 30.1383 139.065 30.485C140.145 30.785 141.228 31.175 142.315 31.655C143.395 32.1283 144.358 32.7683 145.205 33.575C146.052 34.375 146.735 35.415 147.255 36.695C147.775 37.975 148.035 39.565 148.035 41.465C148.035 44.1983 147.492 46.495 146.405 48.355C145.325 50.2217 143.832 51.7417 141.925 52.915C140.018 54.0817 137.752 54.925 135.125 55.445C132.505 55.965 129.658 56.225 126.585 56.225C123.465 56.225 120.918 56.0183 118.945 55.605C116.972 55.1917 115.422 54.7483 114.295 54.275C112.955 53.715 111.958 53.065 111.305 52.325L113.515 43.415H124.955C124.915 43.8083 124.872 44.3417 124.825 45.015C124.785 45.6817 124.765 46.2117 124.765 46.605C124.765 47.125 124.828 47.665 124.955 48.225C125.088 48.7917 125.295 49.3117 125.575 49.785C125.855 50.265 126.255 50.655 126.775 50.955C127.295 51.2617 127.945 51.415 128.725 51.415C129.592 51.415 130.362 51.2183 131.035 50.825C131.708 50.4383 132.272 49.9517 132.725 49.365C133.178 48.785 133.525 48.135 133.765 47.415C134.005 46.7017 134.125 45.9983 134.125 45.305C134.125 44.3517 133.895 43.5517 133.435 42.905C132.982 42.2517 132.365 41.6983 131.585 41.245C130.805 40.785 129.905 40.395 128.885 40.075C127.872 39.7483 126.822 39.4117 125.735 39.065C124.695 38.765 123.602 38.395 122.455 37.955C121.308 37.5283 120.258 36.9217 119.305 36.135C118.352 35.3617 117.558 34.3783 116.925 33.185C116.298 31.9917 115.985 30.4617 115.985 28.595C115.985 25.8217 116.688 23.495 118.095 21.615C119.508 19.7283 121.285 18.1983 123.425 17.025C125.572 15.8583 127.925 15.025 130.485 14.525C133.038 14.025 135.462 13.775 137.755 13.775C140.795 13.775 143.408 14.135 145.595 14.855C147.782 15.5683 149.438 16.4017 150.565 17.355L148.165 26.385Z" fill="#000"/>
    <defs>
        <linearGradient id="paint0_linear_1_5" x1="23.9015" y1="29.8908" x2="23.9015" y2="0" gradientUnits="userSpaceOnUse">
            <stop stop-color="#667DEA"/>
            <stop offset="1" stop-color="#764BA2"/>
        </linearGradient>
        <linearGradient id="paint1_linear_1_5" x1="0" y1="47.1052" x2="0" y2="23.9087" gradientUnits="userSpaceOnUse">
            <stop stop-color="#667DEA"/>
            <stop offset="1" stop-color="#764BA2"/>
        </linearGradient>
        <linearGradient id="paint2_linear_1_5" x1="41.0878" y1="47.1075" x2="41.0878" y2="23.8985" gradientUnits="userSpaceOnUse">
            <stop stop-color="#667DEA"/>
            <stop offset="1" stop-color="#764BA2"/>
        </linearGradient>
        <linearGradient id="paint3_linear_1_5" x1="23.8866" y1="71" x2="23.8866" y2="41.0985" gradientUnits="userSpaceOnUse">
            <stop stop-color="#667DEA"/>
            <stop offset="1" stop-color="#764BA2"/>
        </linearGradient>
    </defs>
</svg>
